<?xml version="1.0" standalone="no"?>
<!DOCTYPE svg PUBLIC "-//W3C//DTD SVG 20010904//EN"
 "http://www.w3.org/TR/2001/REC-SVG-20010904/DTD/svg10.dtd">
<svg version="1.0" xmlns="http://www.w3.org/2000/svg"
 width="700.000000pt" height="700.000000pt" viewBox="0 0 700.000000 700.000000"
 preserveAspectRatio="xMidYMid meet">
<metadata>
Created by potrace 1.11, written by Peter Selinger 2001-2013
</metadata>
<g transform="translate(0.000000,700.000000) scale(0.100000,-0.100000)"
fill="#000000" stroke="none">
<path d="M3278 6995 c-1 -1 -42 -5 -89 -9 -47 -4 -95 -8 -105 -10 -10 -2 -45
-7 -78 -11 -67 -8 -85 -11 -186 -31 -516 -104 -986 -314 -1407 -627 -81 -60
-150 -113 -153 -117 -3 -3 -41 -38 -85 -77 -159 -139 -346 -342 -481 -523
-271 -362 -493 -828 -590 -1240 -13 -59 -54 -252 -58 -282 -3 -21 -8 -53 -11
-71 -6 -38 -11 -76 -22 -197 -15 -159 -8 -605 11 -707 2 -10 7 -43 10 -73 7
-62 12 -94 26 -165 6 -27 12 -59 14 -71 30 -158 124 -460 196 -629 48 -113
158 -336 195 -395 14 -22 25 -42 25 -45 0 -14 210 -313 287 -410 82 -102 326
-357 418 -435 362 -312 754 -538 1185 -683 121 -41 271 -83 355 -101 17 -3 41
-9 55 -11 82 -18 189 -36 243 -41 34 -3 65 -8 68 -9 13 -8 237 -19 394 -20
158 0 314 8 410 21 375 51 592 107 915 237 558 224 1083 625 1449 1104 68 88
195 269 202 288 2 6 30 54 63 108 106 180 214 421 291 652 36 109 107 393 121
480 4 28 9 57 10 65 2 8 6 39 9 68 4 29 8 63 10 75 31 156 23 692 -11 887 -4
19 -8 44 -9 55 -7 55 -49 251 -71 334 -24 88 -24 95 -9 127 45 96 89 243 110
369 16 95 12 294 -9 425 -16 103 -68 255 -126 371 -244 483 -774 777 -1307
725 -72 -7 -72 -7 -130 32 -197 134 -497 282 -763 377 -213 77 -517 147 -745
171 -27 3 -63 8 -80 10 -34 6 -541 14 -547 9z m552 -380 c166 -21 199 -26 295
-46 194 -41 428 -115 600 -188 85 -37 285 -136 285 -141 0 -3 -28 -23 -63 -45
-121 -76 -223 -163 -308 -261 -87 -101 -110 -134 -175 -251 l-51 -92 -29 18
c-60 36 -293 125 -380 146 -255 61 -288 65 -534 70 -232 4 -323 -5 -570 -60
-143 -31 -460 -162 -570 -236 -14 -9 -64 -42 -111 -73 -114 -75 -234 -177
-342 -289 -82 -86 -221 -257 -244 -302 -11 -20 -8 -20 1339 -20 742 1 1351 -2
1353 -5 2 -4 7 -22 10 -41 9 -54 36 -151 50 -186 10 -23 10 -32 2 -35 -7 -2
-663 -3 -1459 -2 -796 0 -1451 -2 -1456 -5 -30 -19 -144 -369 -167 -511 -3
-19 -7 -46 -10 -60 -9 -49 -15 -107 -21 -207 l-6 -103 2165 0 c1204 0 2167 4
2169 9 2 4 50 11 108 14 132 8 166 13 265 38 196 50 382 146 546 281 25 21 48
38 51 38 7 0 24 -95 34 -180 3 -30 8 -66 11 -80 12 -58 11 -538 -2 -635 -7
-55 -16 -125 -19 -155 -24 -186 -104 -473 -204 -720 -106 -264 -334 -631 -528
-850 -274 -310 -613 -570 -979 -753 -124 -62 -353 -154 -465 -187 -41 -12 -87
-25 -102 -30 l-28 -9 0 491 c0 462 -1 490 -17 485 -10 -3 -62 -22 -117 -42
-95 -34 -213 -67 -286 -80 -19 -4 -71 -13 -115 -21 -44 -8 -100 -14 -125 -15
-25 -1 -56 -4 -69 -8 l-24 -6 2 -453 c2 -428 1 -452 -16 -453 -62 -4 -210 3
-220 10 -5 3 -9 205 -9 453 0 246 -2 449 -4 451 -3 3 -44 8 -91 11 -47 4 -100
11 -118 16 -17 5 -34 9 -36 9 -40 -2 -247 53 -360 96 -38 14 -78 29 -87 32
-17 5 -18 -22 -18 -466 0 -292 -4 -471 -10 -471 -11 0 -215 72 -261 93 -234
103 -357 169 -529 282 -727 478 -1226 1240 -1369 2090 -16 95 -19 116 -25 180
-4 33 -9 85 -12 115 -7 75 -8 403 0 465 3 28 8 75 11 105 35 362 163 782 338
1110 50 94 165 285 196 326 9 12 23 32 31 44 128 189 360 435 581 616 77 63
331 240 369 257 8 4 31 17 50 29 61 37 282 145 365 178 157 63 380 134 485
154 14 3 70 14 125 25 100 20 145 26 265 37 36 4 66 8 68 9 10 9 485 0 572
-10z m1975 -498 c11 -3 40 -8 64 -12 128 -21 313 -106 431 -197 268 -210 417
-509 418 -843 1 -300 -101 -548 -313 -760 -206 -207 -450 -310 -742 -314 -491
-7 -914 316 -1047 799 -23 83 -28 125 -31 247 -7 315 119 603 358 821 145 133
376 239 562 258 33 4 61 8 63 9 5 4 215 -3 237 -8z"/>
<path d="M1291 3422 c-11 -4 -6 -46 24 -197 41 -203 122 -423 226 -610 l44
-80 1849 1 1849 0 23 34 c78 113 207 430 238 585 4 17 9 41 11 55 17 79 25
124 30 165 7 44 6 45 -22 46 -90 2 -4265 3 -4272 1z"/>
<path d="M1790 2256 c0 -15 208 -217 294 -285 145 -114 221 -162 410 -256 111
-55 352 -144 428 -159 201 -38 229 -42 317 -51 78 -8 330 -9 386 -1 22 3 65 8
95 11 325 38 687 181 977 387 126 89 355 299 384 351 6 10 -320 12 -1642 12
-1020 0 -1649 -3 -1649 -9z"/>
<path d="M5487 5671 c-2 -3 -3 -104 -3 -223 1 -187 -1 -217 -14 -220 -8 -2
-110 -3 -225 -3 l-211 1 -1 -168 -1 -168 226 -2 227 -3 0 -220 0 -220 155 -5
c85 -3 161 -3 168 -1 9 2 12 56 12 227 l0 224 225 0 225 0 0 30 c1 17 1 86 1
155 0 69 0 131 -1 138 0 10 -44 13 -212 12 -117 0 -219 1 -225 3 -10 3 -13 57
-13 227 l0 222 -165 0 c-91 0 -167 -2 -168 -6z"/>
</g>
</svg>
