<svg xmlns="http://www.w3.org/2000/svg" overflow="visible" viewBox="0 0 329.51 258.75">
  <style>
    .st3{fill:#5a03f2}.st6{fill:#fff}.st7{fill:#9062f9}.st31{fill:#9262fc}
  </style>
  <linearGradient id="SVGID_1_" gradientUnits="userSpaceOnUse" x1="164.823" y1="103.145" x2="164.823" y2="258.365">
    <stop offset=".002" stop-color="#5a03f2"/>
    <stop offset=".146" stop-color="#671bf4"/>
    <stop offset=".375" stop-color="#793af6"/>
    <stop offset=".598" stop-color="#8650f8"/>
    <stop offset=".81" stop-color="#8d5df9"/>
    <stop offset="1" stop-color="#9062f9"/>
  </linearGradient>
  <path fill="url(#SVGID_1_)" d="M.14 103.15h329.37v155.22H.14z"/>
  <linearGradient id="SVGID_2_" gradientUnits="userSpaceOnUse" x1="94.206" y1="64.133" x2="94.206" y2="165.266">
    <stop offset="0" stop-color="#9062f9"/>
    <stop offset=".118" stop-color="#7939f6"/>
    <stop offset=".249" stop-color="#6312f3"/>
    <stop offset=".317" stop-color="#5a03f2"/>
    <stop offset=".395" stop-color="#5503e8"/>
    <stop offset=".527" stop-color="#4703ce"/>
    <stop offset=".695" stop-color="#3103a4"/>
    <stop offset=".892" stop-color="#13036a"/>
    <stop offset=".997" stop-color="#010348"/>
  </linearGradient>
  <path fill="url(#SVGID_2_)" d="M68.57 165.27V86.5l25.64-22.37 25.63 23.15v77.99z"/>
  <linearGradient id="SVGID_3_" gradientUnits="userSpaceOnUse" x1="275.762" y1="190.567" x2="275.762" y2="211.676">
    <stop offset=".003" stop-color="#f0b742"/>
    <stop offset="1" stop-color="#5a03f2"/>
  </linearGradient>
  <circle cx="275.76" cy="201.12" r="10.55" fill="url(#SVGID_3_)"/>
  <path class="st3" d="M275.76 213.68c-6.92 0-12.55-5.63-12.55-12.55s5.63-12.55 12.55-12.55 12.55 5.63 12.55 12.55-5.62 12.55-12.55 12.55zm0-21.11c-4.72 0-8.55 3.84-8.55 8.55s3.84 8.55 8.55 8.55 8.55-3.84 8.55-8.55-3.83-8.55-8.55-8.55z"/>
  <linearGradient id="SVGID_4_" gradientUnits="userSpaceOnUse" x1="311.457" y1="190.567" x2="311.457" y2="211.676">
    <stop offset=".003" stop-color="#f0b742"/>
    <stop offset="1" stop-color="#5a03f2"/>
  </linearGradient>
  <circle cx="311.46" cy="201.12" r="10.55" fill="url(#SVGID_4_)"/>
  <path class="st3" d="M311.46 213.68c-6.92 0-12.55-5.63-12.55-12.55s5.63-12.55 12.55-12.55 12.55 5.63 12.55 12.55-5.63 12.55-12.55 12.55zm0-21.11c-4.72 0-8.55 3.84-8.55 8.55s3.84 8.55 8.55 8.55 8.55-3.84 8.55-8.55-3.84-8.55-8.55-8.55z"/>
  <linearGradient id="SVGID_5_" gradientUnits="userSpaceOnUse" x1="240.069" y1="190.567" x2="240.069" y2="211.676">
    <stop offset=".003" stop-color="#f0b742"/>
    <stop offset="1" stop-color="#5a03f2"/>
  </linearGradient>
  <circle cx="240.07" cy="201.12" r="10.55" fill="url(#SVGID_5_)"/>
  <path class="st3" d="M240.07 213.68c-6.92 0-12.55-5.63-12.55-12.55s5.63-12.55 12.55-12.55 12.55 5.63 12.55 12.55-5.63 12.55-12.55 12.55zm0-21.11c-4.72 0-8.55 3.84-8.55 8.55s3.84 8.55 8.55 8.55 8.55-3.84 8.55-8.55-3.83-8.55-8.55-8.55z"/>
  <circle class="st3" cx="146.01" cy="3.08" r="3.08"/>
  <path class="st3" d="M94.14 80.34v21.38"/>
  <path class="st6" d="M92.64 80.34h3v21.39h-3z"/>
  <path class="st7" d="M85.1 87.15s-.92-11.11 9.17-11.11 9.04 11.11 9.04 11.11H85.1z"/>
  <linearGradient id="SVGID_6_" gradientUnits="userSpaceOnUse" x1="94.142" y1="80.339" x2="94.142" y2="101.725">
    <stop offset=".003" stop-color="#f0b742"/>
    <stop offset="1" stop-color="#5a03f2"/>
  </linearGradient>
  <path d="M94.27 80.35v-.01c-.04 0-.08.01-.13.01-.04 0-.08-.01-.13-.01v.01c-3.41.13-4.41 2.7-4.41 2.7v18.67h9.07V83.05c.01 0-.99-2.57-4.4-2.7z" fill="url(#SVGID_6_)"/>
  <path class="st3" d="M100.18 103.22H88.1V82.77l.1-.26c.05-.13 1.1-2.73 4.31-3.47v-.19l1.55-.01.12.01c-.03 0 .03-.01.09-.01h1.5v.2c3.21.74 4.26 3.35 4.31 3.47l.1.26v20.45zm-9.08-3h6.08V83.4c-.27-.45-1.08-1.48-2.97-1.55h-.14c-1.87.07-2.69 1.09-2.97 1.56v16.81z"/>
  <path class="st3" d="M89.6 90.15h9.03v3H89.6z"/>
  <linearGradient id="SVGID_7_" gradientUnits="userSpaceOnUse" x1="94.206" y1="112.884" x2="94.206" y2="154.151">
    <stop offset=".003" stop-color="#f0b742"/>
    <stop offset="1" stop-color="#5a03f2"/>
  </linearGradient>
  <path fill="url(#SVGID_7_)" d="M86.79 112.88h14.83v41.27H86.79z"/>
  <path class="st3" d="M103.62 156.15H84.79v-45.27h18.83v45.27zm-14.83-4h10.83v-37.27H88.79v37.27z"/>
  <path class="st3" d="M87.58 131.52h13.75v4H87.58zM0 174.1h329.51v7H0z"/>
  <linearGradient id="SVGID_8_" gradientUnits="userSpaceOnUse" x1="178.018" y1="176.969" x2="178.018" y2="193.053">
    <stop offset=".003" stop-color="#f0b742"/>
    <stop offset="1" stop-color="#5a03f2"/>
  </linearGradient>
  <path fill="url(#SVGID_8_)" d="M166.54 176.97h22.96v16.08h-22.96z"/>
  <path class="st3" d="M191.5 195.05h-26.96v-20.08h26.96v20.08zm-22.96-4h18.96v-12.08h-18.96v12.08z"/>
  <path class="st3" d="M182.53 193.09c-.02-.51-.29-5.02-4.35-5.02-4.13 0-4.64 4.42-4.68 4.92l-2.99-.24c.21-2.66 2.09-7.68 7.67-7.68 5.65 0 7.27 5.2 7.34 7.94l-2.99.08z"/>
  <path class="st3" d="M179.77 185.998l7.805-9.954 2.36 1.85-7.804 9.955z"/>
  <path class="st3" d="M176.79 176.39h3v10.18h-3zM182.662 187.875l6.23-3.425 1.446 2.628-6.23 3.426zM165.682 177.892l2.361-1.85 7.805 9.955-2.36 1.85zM165.305 187.083l1.446-2.63 6.23 3.425-1.444 2.63zM167.02 192.19h21.99v3h-21.99z"/>
  <linearGradient id="SVGID_9_" gradientUnits="userSpaceOnUse" x1="178.181" y1="198.873" x2="178.181" y2="256.749">
    <stop offset=".003" stop-color="#f0b742"/>
    <stop offset="1" stop-color="#5a03f2"/>
  </linearGradient>
  <path fill="url(#SVGID_9_)" d="M166.75 198.87h22.87v57.88h-22.87z"/>
  <path class="st3" d="M191.61 258.75h-26.87v-61.88h26.87v61.88zm-22.86-4h18.87v-53.88h-18.87v53.88z"/>
  <path class="st3" d="M166.75 226.31h22.39v3h-22.39z"/>
  <linearGradient id="SVGID_10_" gradientUnits="userSpaceOnUse" x1="209.367" y1="176.969" x2="209.367" y2="193.053">
    <stop offset=".003" stop-color="#f0b742"/>
    <stop offset="1" stop-color="#5a03f2"/>
  </linearGradient>
  <path fill="url(#SVGID_10_)" d="M197.88 176.97h22.96v16.08h-22.96z"/>
  <path class="st3" d="M222.85 195.05h-26.96v-20.08h26.96v20.08zm-22.97-4h18.96v-12.08h-18.96v12.08z"/>
  <path class="st3" d="M213.88 193.09c-.02-.51-.29-5.02-4.35-5.02-4.13 0-4.64 4.42-4.68 4.92l-2.99-.24c.21-2.66 2.09-7.68 7.67-7.68 5.65 0 7.28 5.19 7.35 7.94l-3 .08z"/>
  <path class="st3" d="M211.118 185.998l7.805-9.954 2.361 1.851-7.805 9.954z"/>
  <path class="st3" d="M208.14 176.39h3v10.18h-3zM214.012 187.874l6.23-3.426 1.446 2.629-6.23 3.425zM197.033 177.89l2.36-1.85 7.806 9.955-2.361 1.851zM196.637 187.088l1.445-2.629 6.231 3.424-1.445 2.63zM198.37 192.19h21.99v3h-21.99z"/>
  <g>
    <linearGradient id="SVGID_11_" gradientUnits="userSpaceOnUse" x1="209.53" y1="198.873" x2="209.53" y2="256.749">
      <stop offset=".003" stop-color="#f0b742"/>
      <stop offset="1" stop-color="#5a03f2"/>
    </linearGradient>
    <path fill="url(#SVGID_11_)" d="M198.1 198.87h22.87v57.88H198.1z"/>
    <path class="st3" d="M222.96 258.75H196.1v-61.88h26.87v61.88zm-22.86-4h18.87v-53.88H200.1v53.88z"/>
  </g>
  <g>
    <path class="st3" d="M198.1 226.31h22.39v3H198.1z"/>
  </g>
  <g>
    <linearGradient id="SVGID_12_" gradientUnits="userSpaceOnUse" x1="146.669" y1="176.969" x2="146.669" y2="193.053">
      <stop offset=".003" stop-color="#f0b742"/>
      <stop offset="1" stop-color="#5a03f2"/>
    </linearGradient>
    <path fill="url(#SVGID_12_)" d="M135.19 176.97h22.96v16.08h-22.96z"/>
    <path class="st3" d="M160.15 195.05h-26.97v-20.08h26.97v20.08zm-22.96-4h18.97v-12.08h-18.97v12.08z"/>
    <path class="st3" d="M151.18 193.09c-.02-.51-.29-5.02-4.35-5.02-4.13 0-4.64 4.42-4.68 4.92l-2.99-.24c.21-2.66 2.09-7.68 7.67-7.68 5.65 0 7.28 5.2 7.35 7.94l-3 .08z"/>
    <path class="st3" d="M148.422 185.998l7.805-9.954 2.36 1.85-7.804 9.955z"/>
    <path class="st3" d="M145.45 176.39h3v10.18h-3zM151.312 187.876l6.23-3.425 1.446 2.629-6.23 3.425zM134.318 177.894l2.36-1.85 7.805 9.955-2.361 1.85zM133.943 187.082l1.445-2.63 6.231 3.425-1.445 2.629zM135.67 192.19h21.99v3h-21.99z"/>
    <g>
      <linearGradient id="SVGID_13_" gradientUnits="userSpaceOnUse" x1="146.832" y1="198.873" x2="146.832" y2="256.749">
        <stop offset=".003" stop-color="#f0b742"/>
        <stop offset="1" stop-color="#5a03f2"/>
      </linearGradient>
      <path fill="url(#SVGID_13_)" d="M135.4 198.87h22.87v57.88H135.4z"/>
      <path class="st3" d="M160.26 258.75H133.4v-61.88h26.87v61.88zm-22.86-4h18.87v-53.88H137.4v53.88z"/>
    </g>
    <g>
      <path class="st3" d="M135.4 226.31h22.39v3H135.4z"/>
    </g>
  </g>
  <g>
    <linearGradient id="SVGID_14_" gradientUnits="userSpaceOnUse" x1="115.32" y1="176.969" x2="115.32" y2="193.053">
      <stop offset=".003" stop-color="#f0b742"/>
      <stop offset="1" stop-color="#5a03f2"/>
    </linearGradient>
    <path fill="url(#SVGID_14_)" d="M103.84 176.97h22.96v16.08h-22.96z"/>
    <path class="st3" d="M128.8 195.05h-26.96v-20.08h26.96v20.08zm-22.96-4h18.96v-12.08h-18.96v12.08z"/>
    <path class="st3" d="M119.83 193.09c-.02-.51-.29-5.02-4.35-5.02-4.13 0-4.64 4.42-4.68 4.92l-2.99-.24c.21-2.66 2.09-7.68 7.67-7.68 5.65 0 7.27 5.2 7.34 7.94l-2.99.08z"/>
    <path class="st3" d="M117.074 185.998l7.805-9.954 2.36 1.85-7.805 9.955z"/>
    <path class="st3" d="M114.1 176.39h3v10.18h-3zM119.97 187.873l6.231-3.425 1.446 2.629-6.23 3.425zM102.981 177.895l2.361-1.851 7.806 9.955-2.361 1.851zM102.594 187.083l1.445-2.629 6.23 3.424-1.444 2.63zM104.33 192.19h21.99v3h-21.99z"/>
    <g>
      <linearGradient id="SVGID_15_" gradientUnits="userSpaceOnUse" x1="115.483" y1="198.873" x2="115.483" y2="256.749">
        <stop offset=".003" stop-color="#f0b742"/>
        <stop offset="1" stop-color="#5a03f2"/>
      </linearGradient>
      <path fill="url(#SVGID_15_)" d="M104.05 198.87h22.87v57.88h-22.87z"/>
      <path class="st3" d="M128.92 258.75h-26.87v-61.88h26.87v61.88zm-22.87-4h18.87v-53.88h-18.87v53.88z"/>
    </g>
    <g>
      <path class="st3" d="M104.05 226.31h22.39v3h-22.39z"/>
    </g>
  </g>
  <g>
    <linearGradient id="SVGID_16_" gradientUnits="userSpaceOnUse" x1="83.971" y1="176.969" x2="83.971" y2="193.053">
      <stop offset=".003" stop-color="#f0b742"/>
      <stop offset="1" stop-color="#5a03f2"/>
    </linearGradient>
    <path fill="url(#SVGID_16_)" d="M72.49 176.97h22.96v16.08H72.49z"/>
    <path class="st3" d="M97.45 195.05H70.49v-20.08h26.96v20.08zm-22.96-4h18.96v-12.08H74.49v12.08z"/>
    <path class="st3" d="M88.49 193.09c-.02-.51-.29-5.02-4.35-5.02-4.25 0-4.67 4.71-4.69 4.92l-2.99-.24c.21-2.66 2.09-7.68 7.68-7.68 5.65 0 7.27 5.2 7.34 7.94l-2.99.08z"/>
    <path class="st3" d="M85.726 185.998l7.805-9.954 2.36 1.85-7.805 9.955z"/>
    <path class="st3" d="M82.75 176.39h3v10.18h-3zM88.621 187.875l6.23-3.426 1.446 2.63-6.23 3.425zM71.62 177.893l2.36-1.85 7.804 9.955-2.36 1.85zM71.244 187.084l1.445-2.63 6.231 3.425-1.445 2.63zM72.98 192.19h21.99v3H72.98z"/>
    <g>
      <linearGradient id="SVGID_17_" gradientUnits="userSpaceOnUse" x1="84.133" y1="198.873" x2="84.133" y2="256.749">
        <stop offset=".003" stop-color="#f0b742"/>
        <stop offset="1" stop-color="#5a03f2"/>
      </linearGradient>
      <path fill="url(#SVGID_17_)" d="M72.7 198.87h22.87v57.88H72.7z"/>
      <path class="st3" d="M97.57 258.75H70.7v-61.88h26.87v61.88zm-22.87-4h18.87v-53.88H74.7v53.88z"/>
    </g>
    <g>
      <path class="st3" d="M72.7 226.31h22.39v3H72.7z"/>
    </g>
  </g>
  <g>
    <path class="st3" d="M68.82 104.48h51.49v4H68.82z"/>
  </g>
  <linearGradient id="SVGID_18_" gradientUnits="userSpaceOnUse" x1="198.396" y1="64.133" x2="198.396" y2="165.266">
    <stop offset="0" stop-color="#9062f9"/>
    <stop offset=".118" stop-color="#7939f6"/>
    <stop offset=".249" stop-color="#6312f3"/>
    <stop offset=".317" stop-color="#5a03f2"/>
    <stop offset=".395" stop-color="#5503e8"/>
    <stop offset=".527" stop-color="#4703ce"/>
    <stop offset=".695" stop-color="#3103a4"/>
    <stop offset=".892" stop-color="#13036a"/>
    <stop offset=".997" stop-color="#010348"/>
  </linearGradient>
  <path fill="url(#SVGID_18_)" d="M172.76 165.27V86.5l25.64-22.37 25.63 23.15v77.99z"/>
  <g>
    <path class="st3" d="M198.33 80.34v21.38"/>
    <path class="st6" d="M196.83 80.34h3v21.39h-3z"/>
    <path class="st7" d="M189.29 87.15s-.92-11.11 9.17-11.11 9.04 11.11 9.04 11.11h-18.21z"/>
    <linearGradient id="SVGID_19_" gradientUnits="userSpaceOnUse" x1="198.332" y1="80.339" x2="198.332" y2="101.725">
      <stop offset=".003" stop-color="#f0b742"/>
      <stop offset="1" stop-color="#5a03f2"/>
    </linearGradient>
    <path d="M198.46 80.35v-.01c-.04 0-.08.01-.13.01-.04 0-.08-.01-.13-.01v.01c-3.41.13-4.41 2.7-4.41 2.7v18.67h9.07V83.05c.01 0-.99-2.57-4.4-2.7z" fill="url(#SVGID_19_)"/>
    <path class="st3" d="M204.37 103.22h-12.08V82.77l.1-.26c.05-.13 1.1-2.73 4.31-3.47v-.19l1.55-.01.12.01c-.03 0 .03-.01.08-.01h1.5v.2c3.21.74 4.26 3.35 4.31 3.47l.1.26v20.45zm-9.08-3h6.08V83.4c-.27-.45-1.08-1.48-2.97-1.55h-.14c-1.87.07-2.69 1.09-2.97 1.56v16.81z"/>
    <g>
      <path class="st3" d="M193.79 90.15h9.03v3h-9.03z"/>
    </g>
  </g>
  <g>
    <linearGradient id="SVGID_20_" gradientUnits="userSpaceOnUse" x1="198.396" y1="112.884" x2="198.396" y2="154.151">
      <stop offset=".003" stop-color="#f0b742"/>
      <stop offset="1" stop-color="#5a03f2"/>
    </linearGradient>
    <path fill="url(#SVGID_20_)" d="M190.98 112.88h14.83v41.27h-14.83z"/>
    <path class="st3" d="M207.81 156.15h-18.83v-45.27h18.83v45.27zm-14.83-4h10.83v-37.27h-10.83v37.27z"/>
    <g>
      <path class="st3" d="M191.77 131.52h13.75v4h-13.75z"/>
    </g>
  </g>
  <g>
    <linearGradient id="SVGID_21_" gradientUnits="userSpaceOnUse" x1="242.623" y1="120.147" x2="242.623" y2="161.414">
      <stop offset=".003" stop-color="#f0b742"/>
      <stop offset="1" stop-color="#5a03f2"/>
    </linearGradient>
    <path fill="url(#SVGID_21_)" d="M235.21 120.15h14.83v41.27h-14.83z"/>
    <path class="st3" d="M252.04 163.41h-18.83v-45.27h18.83v45.27zm-14.83-4h10.83v-37.27h-10.83v37.27z"/>
    <g>
      <path class="st3" d="M236 138.78h13.75v4H236z"/>
    </g>
  </g>
  <g>
    <linearGradient id="SVGID_22_" gradientUnits="userSpaceOnUse" x1="265.642" y1="120.147" x2="265.642" y2="161.414">
      <stop offset=".003" stop-color="#f0b742"/>
      <stop offset="1" stop-color="#5a03f2"/>
    </linearGradient>
    <path fill="url(#SVGID_22_)" d="M258.23 120.15h14.83v41.27h-14.83z"/>
    <path class="st3" d="M275.06 163.41h-18.83v-45.27h18.83v45.27zm-14.83-4h10.83v-37.27h-10.83v37.27z"/>
    <g>
      <path class="st3" d="M259.02 138.78h13.75v4h-13.75z"/>
    </g>
  </g>
  <g>
    <linearGradient id="SVGID_23_" gradientUnits="userSpaceOnUse" x1="20.219" y1="120.147" x2="20.219" y2="161.414">
      <stop offset=".003" stop-color="#f0b742"/>
      <stop offset="1" stop-color="#5a03f2"/>
    </linearGradient>
    <path fill="url(#SVGID_23_)" d="M12.8 120.15h14.83v41.27H12.8z"/>
    <path class="st3" d="M29.63 163.41H10.8v-45.27h18.83v45.27zm-14.83-4h10.83v-37.27H14.8v37.27z"/>
    <g>
      <path class="st3" d="M13.59 138.78h13.75v4H13.59z"/>
    </g>
  </g>
  <g>
    <linearGradient id="SVGID_24_" gradientUnits="userSpaceOnUse" x1="43.238" y1="120.147" x2="43.238" y2="161.414">
      <stop offset=".003" stop-color="#f0b742"/>
      <stop offset="1" stop-color="#5a03f2"/>
    </linearGradient>
    <path fill="url(#SVGID_24_)" d="M35.82 120.15h14.83v41.27H35.82z"/>
    <path class="st3" d="M52.65 163.41H33.82v-45.27h18.83v45.27zm-14.83-4h10.83v-37.27H37.82v37.27z"/>
    <g>
      <path class="st3" d="M36.61 138.78h13.75v4H36.61z"/>
    </g>
  </g>
  <g>
    <linearGradient id="SVGID_25_" gradientUnits="userSpaceOnUse" x1="288.661" y1="120.147" x2="288.661" y2="161.414">
      <stop offset=".003" stop-color="#f0b742"/>
      <stop offset="1" stop-color="#5a03f2"/>
    </linearGradient>
    <path fill="url(#SVGID_25_)" d="M281.25 120.15h14.83v41.27h-14.83z"/>
    <path class="st3" d="M298.08 163.41h-18.83v-45.27h18.83v45.27zm-14.83-4h10.83v-37.27h-10.83v37.27z"/>
    <g>
      <path class="st3" d="M282.04 138.78h13.75v4h-13.75z"/>
    </g>
  </g>
  <g>
    <linearGradient id="SVGID_26_" gradientUnits="userSpaceOnUse" x1="311.68" y1="120.147" x2="311.68" y2="161.414">
      <stop offset=".003" stop-color="#f0b742"/>
      <stop offset="1" stop-color="#5a03f2"/>
    </linearGradient>
    <path fill="url(#SVGID_26_)" d="M304.27 120.15h14.83v41.27h-14.83z"/>
    <path class="st3" d="M321.09 163.41h-18.83v-45.27h18.83v45.27zm-14.82-4h10.83v-37.27h-10.83v37.27z"/>
    <g>
      <path class="st3" d="M305.05 138.78h13.75v4h-13.75z"/>
    </g>
  </g>
  <g>
    <path class="st3" d="M173.01 104.48h51.49v4h-51.49z"/>
  </g>
  <linearGradient id="SVGID_27_" gradientUnits="userSpaceOnUse" x1="146.215" y1="83.235" x2="146.215" y2="166.131">
    <stop offset=".003" stop-color="#010348"/>
    <stop offset=".108" stop-color="#13036a"/>
    <stop offset=".305" stop-color="#3103a4"/>
    <stop offset=".473" stop-color="#4703ce"/>
    <stop offset=".605" stop-color="#5503e8"/>
    <stop offset=".683" stop-color="#5a03f2"/>
    <stop offset=".751" stop-color="#6312f3"/>
    <stop offset=".881" stop-color="#7939f6"/>
    <stop offset="1" stop-color="#9062f9"/>
  </linearGradient>
  <path fill="url(#SVGID_27_)" d="M119.78 83.24h52.87v82.9h-52.87z"/>
  <g>
    <path class="st3" d="M119.48 116.88h53.35v7h-53.35z"/>
  </g>
  <linearGradient id="SVGID_28_" gradientUnits="userSpaceOnUse" x1="146.089" y1="30.328" x2="146.089" y2="83.235">
    <stop offset="0" stop-color="#9062f9"/>
    <stop offset=".118" stop-color="#7939f6"/>
    <stop offset=".249" stop-color="#6312f3"/>
    <stop offset=".317" stop-color="#5a03f2"/>
    <stop offset=".395" stop-color="#5503e8"/>
    <stop offset=".527" stop-color="#4703ce"/>
    <stop offset=".695" stop-color="#3103a4"/>
    <stop offset=".892" stop-color="#13036a"/>
    <stop offset=".997" stop-color="#010348"/>
  </linearGradient>
  <path d="M172.69 83.24c1.26-26.45-14.06-47.83-26.63-52.91-12.97 4.73-26.87 26.45-26.63 52.91h53.26z" fill="url(#SVGID_28_)"/>
  <path class="st3" d="M135.3 38.53s7.71-8.2 8.66-16.28c.77-6.52 1.91-18.79 1.91-18.79v-.13l1.06 29.06-11.63 6.14z"/>
  <path class="st3" d="M156.45 38.53s-7.71-8.2-8.66-16.28c-.77-6.52-1.91-18.79-1.91-18.79v-.13l-1.06 29.06 11.63 6.14z"/>
  <g>
    <path class="st3" d="M144.01 3.08h4v28.44h-4z"/>
  </g>
  <g>
    <path class="st3" d="M161.49 86.87c-.02-.29-1.79-28.58-15.89-49.01-11.55 18.66-12.46 48.64-12.47 48.95l-4-.1c.01-.35.24-8.6 2.15-19.34 2.58-14.51 6.82-26.01 12.61-34.17l1.58-2.22 1.65 2.17c16.38 21.52 18.29 52.21 18.36 53.51l-3.99.21z"/>
  </g>
  <circle class="st3" cx="146.01" cy="12.93" r="3.08"/>
  <g>
    <path class="st3" d="M146.79 92v21.39"/>
    <path class="st6" d="M145.29 92h3v21.39h-3z"/>
    <path class="st31" d="M137.75 98.81s-.92-11.11 9.17-11.11 9.04 11.11 9.04 11.11h-18.21z"/>
    <linearGradient id="SVGID_29_" gradientUnits="userSpaceOnUse" x1="146.791" y1="92" x2="146.791" y2="113.386">
      <stop offset=".003" stop-color="#f0b742"/>
      <stop offset="1" stop-color="#5a03f2"/>
    </linearGradient>
    <path d="M146.92 92.01V92c-.04 0-.08.01-.13.01-.04 0-.08-.01-.13-.01v.01c-3.41.13-4.41 2.7-4.41 2.7v18.67h9.07V94.71c.01 0-.99-2.57-4.4-2.7z" fill="url(#SVGID_29_)"/>
    <path class="st3" d="M152.83 114.89h-12.08V94.43l.1-.26c.05-.13 1.1-2.73 4.31-3.47v-.19l1.55-.01.12.01c-.03 0 .03-.01.09-.01h1.5v.2c3.21.74 4.26 3.35 4.31 3.47l.1.26v20.46zm-9.08-3h6.08V95.06c-.27-.45-1.09-1.48-2.97-1.55h-.14c-1.87.07-2.69 1.09-2.97 1.56v16.82z"/>
    <g>
      <path class="st3" d="M142.25 101.81h9.03v3h-9.03z"/>
    </g>
  </g>
  <g>
    <linearGradient id="SVGID_30_" gradientUnits="userSpaceOnUse" x1="146.854" y1="120.378" x2="146.854" y2="161.644">
      <stop offset=".003" stop-color="#f0b742"/>
      <stop offset="1" stop-color="#5a03f2"/>
    </linearGradient>
    <path fill="url(#SVGID_30_)" d="M139.44 120.38h14.83v41.27h-14.83z"/>
    <path class="st3" d="M156.27 163.64h-18.83v-45.27h18.83v45.27zm-14.83-4h10.83v-37.27h-10.83v37.27z"/>
    <g>
      <path class="st3" d="M140.23 139.01h13.75v4h-13.75z"/>
    </g>
  </g>
  <g>
    <path class="st3" d="M63.95 161.65h160.08v7H63.95z"/>
  </g>
  <g>
    <linearGradient id="SVGID_31_" gradientUnits="userSpaceOnUse" x1="257.916" y1="178.512" x2="257.916" y2="258.365">
      <stop offset=".003" stop-color="#f0b742"/>
      <stop offset="1" stop-color="#5a03f2"/>
    </linearGradient>
    <path fill="url(#SVGID_31_)" d="M257.92 178.51v79.85"/>
    <path class="st3" d="M255.92 178.51h4v79.85h-4z"/>
  </g>
  <g>
    <linearGradient id="SVGID_32_" gradientUnits="userSpaceOnUse" x1="293.61" y1="178.512" x2="293.61" y2="258.365">
      <stop offset=".003" stop-color="#f0b742"/>
      <stop offset="1" stop-color="#5a03f2"/>
    </linearGradient>
    <path fill="url(#SVGID_32_)" d="M293.61 178.51v79.85"/>
    <path class="st3" d="M291.61 178.51h4v79.85h-4z"/>
  </g>
  <g>
    <linearGradient id="SVGID_33_" gradientUnits="userSpaceOnUse" x1="16.949" y1="190.567" x2="16.949" y2="211.676">
      <stop offset=".003" stop-color="#f0b742"/>
      <stop offset="1" stop-color="#5a03f2"/>
    </linearGradient>
    <circle cx="16.95" cy="201.12" r="10.55" fill="url(#SVGID_33_)"/>
    <path class="st3" d="M16.95 213.68c-6.92 0-12.55-5.63-12.55-12.55s5.63-12.55 12.55-12.55 12.55 5.63 12.55 12.55-5.63 12.55-12.55 12.55zm0-21.11c-4.72 0-8.55 3.84-8.55 8.55s3.84 8.55 8.55 8.55 8.55-3.84 8.55-8.55-3.83-8.55-8.55-8.55z"/>
  </g>
  <g>
    <linearGradient id="SVGID_34_" gradientUnits="userSpaceOnUse" x1="52.643" y1="190.567" x2="52.643" y2="211.676">
      <stop offset=".003" stop-color="#f0b742"/>
      <stop offset="1" stop-color="#5a03f2"/>
    </linearGradient>
    <circle cx="52.64" cy="201.12" r="10.55" fill="url(#SVGID_34_)"/>
    <path class="st3" d="M52.64 213.68c-6.92 0-12.55-5.63-12.55-12.55s5.63-12.55 12.55-12.55 12.55 5.63 12.55 12.55-5.62 12.55-12.55 12.55zm0-21.11c-4.72 0-8.55 3.84-8.55 8.55s3.84 8.55 8.55 8.55 8.55-3.84 8.55-8.55-3.83-8.55-8.55-8.55z"/>
  </g>
  <g>
    <linearGradient id="SVGID_35_" gradientUnits="userSpaceOnUse" x1="34.796" y1="178.512" x2="34.796" y2="258.365">
      <stop offset=".003" stop-color="#f0b742"/>
      <stop offset="1" stop-color="#5a03f2"/>
    </linearGradient>
    <path fill="url(#SVGID_35_)" d="M34.8 178.51v79.85"/>
    <path class="st3" d="M32.8 178.51h4v79.85h-4z"/>
  </g>
</svg>